<?xml version="1.0" encoding="UTF-8" standalone="no"?>
<!-- Created with Inkscape (http://www.inkscape.org/) -->

<svg
   xmlns:dc="http://purl.org/dc/elements/1.1/"
   xmlns:cc="http://creativecommons.org/ns#"
   xmlns:rdf="http://www.w3.org/1999/02/22-rdf-syntax-ns#"
   xmlns:svg="http://www.w3.org/2000/svg"
   xmlns="http://www.w3.org/2000/svg"
   xmlns:xlink="http://www.w3.org/1999/xlink"
   xmlns:sodipodi="http://sodipodi.sourceforge.net/DTD/sodipodi-0.dtd"
   xmlns:inkscape="http://www.inkscape.org/namespaces/inkscape"
   id="svg3462"
   version="1.1"
   inkscape:version="0.91 r13725"
   width="213.3"
   height="41.400002"
   viewBox="0 0 213.3 41.400002"
   sodipodi:docname="emnlp17_logo.svg">
  <metadata
     id="metadata3468">
    <rdf:RDF>
      <cc:Work
         rdf:about="">
        <dc:format>image/svg+xml</dc:format>
        <dc:type
           rdf:resource="http://purl.org/dc/dcmitype/StillImage" />
        <dc:title></dc:title>
      </cc:Work>
    </rdf:RDF>
  </metadata>
  <defs
     id="defs3466" />
  <sodipodi:namedview
     pagecolor="#ffffff"
     bordercolor="#666666"
     borderopacity="1"
     objecttolerance="10"
     gridtolerance="10"
     guidetolerance="10"
     inkscape:pageopacity="0"
     inkscape:pageshadow="2"
     inkscape:window-width="1920"
     inkscape:window-height="1056"
     id="namedview3464"
     showgrid="false"
     inkscape:zoom="4.1467416"
     inkscape:cx="62.838269"
     inkscape:cy="19.601782"
     inkscape:window-x="0"
     inkscape:window-y="24"
     inkscape:window-maximized="1"
     inkscape:current-layer="svg3462" />
  <image
     sodipodi:absref="/home/joachim/emnlp17/emnlp17-handbook/content/fmatter/emnlp17_logo.png"
     xlink:href="emnlp17_logo.png"
     y="0"
     x="0"
     id="image3470"
     preserveAspectRatio="none"
     height="41.400002"
     width="213.3" />
  <path
     style="fill:#000000"
     d="m 164.00606,40.797637 c -5.2117,-2.096912 -4.98007,-20.218462 0.28426,-22.238573 4.13377,-1.586276 8.11272,-0.337326 9.89297,3.105306 2.82801,5.46877 1.05804,17.706226 -2.77361,19.176569 -1.68945,0.648304 -5.74362,0.624593 -7.40362,-0.0433 z m 6.96228,-4.738468 c 0.51241,-0.957458 0.93166,-3.819083 0.93166,-6.359168 0,-5.716928 -1.19154,-8.1 -4.05,-8.1 -2.85846,0 -4.05,2.383072 -4.05,8.1 0,2.540085 0.41925,5.40171 0.93166,6.359168 1.21235,2.265284 5.02433,2.265284 6.23668,0 z M 140.4,38.991987 c 0,-0.829408 2.43,-3.827464 5.4,-6.662347 6.20888,-5.926409 7.1923,-9.345508 2.99128,-10.399896 -1.3248,-0.332502 -3.55229,-0.172898 -4.95,0.354676 -2.3291,0.87914 -2.54128,0.786664 -2.54128,-1.107629 0,-2.255034 1.95813,-3.143423 6.975,-3.164501 3.92493,-0.01649 6.525,2.689815 6.525,6.791586 0,2.622282 -0.84057,4.092658 -4.63055,8.1 l -4.63055,4.896126 5.08055,0 c 3.91604,0 5.08055,0.309432 5.08055,1.35 0,1.094117 -1.45,1.35 -7.65,1.35 -6.55627,0 -7.65,-0.215604 -7.65,-1.508015 z m 40.5,0.158015 c 0,-0.84 0.85,-1.35 2.25,-1.35 2.2,0 2.25,-0.15 2.25,-6.750001 0,-6.6 -0.05,-6.75 -2.25,-6.75 -1.4,0 -2.25,-0.51 -2.25,-1.35 0,-0.7425 0.61146,-1.35 1.35881,-1.35 0.74734,0 2.05235,-0.81 2.90002,-1.8 3.19541,-3.731977 3.84117,-2.370251 3.84117,8.1 l 0,9.900001 2.25,0 c 1.4,0 2.25,0.51 2.25,1.35 0,1.071428 -1.3,1.35 -6.3,1.35 -5,0 -6.3,-0.278572 -6.3,-1.35 z m 23.03918,-6.525 c 2.32839,-4.331251 4.5771,-8.259751 4.99713,-8.730001 1.62196,-1.815889 0.56013,-2.295 -5.08631,-2.295 -4.6,0 -5.85,-0.288462 -5.85,-1.35 0,-1.094117 1.45,-1.35 7.65,-1.35 7.36165,0 7.65,0.07729 7.65,2.050614 0,1.127838 -2.08076,5.987838 -4.6239,10.800001 -3.89686,7.373666 -4.96561,8.749386 -6.79714,8.749386 -2.14067,0 -2.1098,-0.117977 2.06022,-7.875 z M 111.6,23.400001 l 0,-15.3000006 4.05,0 c 2.2275,0 4.05,0.4192494 4.05,0.9316656 0,0.6422203 0.54084,0.6422203 1.74083,0 3.05245,-1.6336207 7.87288,-1.0915829 10.51673,1.182563 2.04859,1.762117 2.52289,3.012149 2.84792,7.505698 0.66142,9.144028 -3.99251,14.541917 -11.65196,13.514572 L 119.7,30.771283 l 0,3.96436 0,3.964359 -4.05,0 -4.05,0 0,-15.300001 z m 14.22,0.72 c 1.14361,-1.14361 1.45013,-5.908261 0.53371,-8.296392 -0.34962,-0.911094 -1.64566,-1.423608 -3.6,-1.423608 l -3.05371,0 0,5.4 c 0,5.314286 0.04,5.4 2.52,5.4 1.386,0 3.006,-0.486 3.6,-1.08 z M 5.7404721,30.206773 C 1.5571575,28.386094 0,25.563158 0,19.800001 0,11.943658 3.9914899,8.1000004 12.15,8.1000004 c 7.443022,0 11.25,3.7001466 11.25,10.9343016 l 0,2.565699 -8.071753,0 c -6.5719296,0 -7.9813713,0.235535 -7.5853311,1.267599 0.2675327,0.697179 1.6932961,1.767502 3.1683631,2.378495 2.566784,1.063196 5.106671,0.691919 10.463721,-1.529573 0.778333,-0.322763 1.125,0.534123 1.125,2.780755 0,2.657618 -0.419207,3.406658 -2.30859,4.125 C 16.905978,31.871396 9.0459585,31.645399 5.7404721,30.206773 Z M 15.3,15.331666 c 0,-0.477584 -0.837158,-1.316369 -1.860352,-1.863965 -1.447141,-0.774486 -2.346704,-0.67696 -4.0500002,0.439083 C 8.1853416,14.695876 7.2,15.53466 7.2,15.770748 c 0,0.236089 1.8225,0.429253 4.05,0.429253 2.2275,0 4.05,-0.390751 4.05,-0.868335 z m 11.7,4.018335 0,-11.2500006 4.05,0 c 2.2275,0 4.05,0.4192494 4.05,0.9316656 0,0.6422203 0.540832,0.6422203 1.740833,0 2.792546,-1.494526 7.978735,-1.112098 9.814555,0.7237225 1.607184,1.6071845 1.714918,1.6071845 3.699706,0 2.232634,-1.807878 7.274206,-2.1847036 9.964693,-0.7447978 2.330016,1.2469863 3.569219,6.3125113 3.575194,14.6144103 l 0.005,6.975 -4.05,0 -4.05,0 -0.01378,-6.975 c -0.01569,-7.939604 -0.652767,-9.507904 -3.687999,-9.078743 -2.053879,0.290404 -2.159639,0.649575 -2.408259,8.178743 l -0.260039,7.875 -3.979921,0 -3.979921,0 -0.260039,-7.875 -0.26004,-7.875 -2.7,0 -2.7,0 -0.26004,7.875 -0.260039,7.875 -4.014961,0 -4.01496,0 0,-11.25 z m 42.3,0 0,-11.2500006 4.05,0 c 2.2275,0 4.05,0.4192494 4.05,0.9316656 0,0.6422203 0.540832,0.6422203 1.740833,0 3.180617,-1.702215 8.565759,-1.1228869 10.702284,1.15134 C 91.587879,12.040216 91.8,13.259712 91.8,21.433007 l 0,9.166994 -3.6,0 -3.6,0 0,-5.79141 c 0,-7.975954 -1.098931,-10.608836 -4.275436,-10.243329 -2.466207,0.283778 -2.475442,0.311332 -2.734604,8.159739 l -0.260039,7.875 -4.014961,0 -4.01496,0 0,-11.25 z m 28.8,-4.05 L 98.1,0 l 4.05,0 4.05,0 0,15.300001 0,15.3 -4.05,0 -4.05,0 0,-15.3 z"
     id="path3478"
     inkscape:connector-curvature="0" />
</svg>
